<svg width="62" height="62" viewBox="0 0 62 62" fill="none" xmlns="http://www.w3.org/2000/svg">
<rect x="6" y="5.0614" width="50" height="54" fill="#F2E6CE"/>
<path d="M61.9979 30.6028C61.9979 36.7229 62.0026 42.843 61.9979 48.9631C61.9933 55.8579 56.9447 61.0034 49.9274 61.0398C37.3186 61.1079 24.7097 61.1034 12.1009 61.0421C5.06515 61.008 0.00497862 55.8829 0.00266803 48.9949C0.000357448 36.6775 -0.00195314 24.3623 0.00266803 12.0448C0.00497862 5.11598 5.1622 0.0249893 12.2395 0.0136305C24.7328 -0.00454351 37.2285 -0.00454351 49.7218 0.0136305C56.8569 0.0227175 61.9933 5.10918 61.9979 12.1244C62.0026 18.2854 61.9979 24.4441 61.9979 30.6028ZM49.195 10.0934C44.0609 10.0934 39.2965 10.0866 34.5297 10.098C32.8361 10.1025 31.154 10.2956 29.5042 10.6727C19.5363 12.9535 12.7039 21.4408 12.6369 31.6705C12.5977 37.6407 12.6531 43.6131 12.6069 49.5856C12.5977 50.6624 12.8957 51.0077 14.0233 51.0032C24.0997 50.9623 34.1739 50.9827 44.2503 50.9713C44.5623 50.9713 44.9343 51.1281 45.2323 50.7601C44.9343 50.4557 44.6524 50.1513 44.3566 49.8605C36.3089 41.9502 28.2657 34.0309 20.1925 26.1433C19.504 25.4709 19.3815 24.9325 19.8506 24.0897C21.8723 20.4594 24.8045 17.8878 28.7417 16.3953C32.0759 15.1299 35.5487 15.4048 39.0007 15.4116C39.717 15.4138 39.7516 15.9477 39.7516 16.452C39.7586 20.4958 39.7586 24.5395 39.7516 28.5832C39.7516 28.9172 39.784 29.3261 39.4212 29.4919C38.9938 29.6873 38.7049 29.3488 38.4323 29.083C37.314 27.9903 36.2026 26.8908 35.0843 25.8003C34.8162 25.5391 34.5875 25.1847 34.1554 25.1824C31.7986 25.1733 29.4441 25.1778 26.7754 25.1778C30.1188 28.4537 33.2219 31.4888 36.3181 34.5329C36.6901 34.8987 37.143 34.8851 37.6051 34.8851C39.5668 34.8851 41.5285 34.8873 43.4902 34.8851C45.0336 34.8828 45.0406 34.8805 45.0406 33.4016C45.0429 27.6563 45.0591 21.9111 45.0244 16.1681C45.0175 15.1889 45.304 14.4279 45.9694 13.7191C47.0069 12.6196 47.9819 11.4655 49.195 10.0934Z" fill="url(#paint0_linear_41_45)"/>
<path d="M25.1164 45.6759C23.157 45.6759 21.2 45.6486 19.2406 45.6873C18.3556 45.7054 18.0067 45.3965 18.0137 44.5082C18.0437 40.6213 18.0229 36.7343 18.0298 32.8473C18.0298 32.5611 17.9051 32.1658 18.2239 32.0204C18.6375 31.8318 18.8085 32.2839 19.0303 32.502C23.1663 36.5503 27.293 40.6076 31.4128 44.6695C31.6369 44.8922 32.099 45.0716 31.928 45.4578C31.7663 45.8281 31.3134 45.6646 30.9899 45.6668C29.0328 45.6827 27.0758 45.6759 25.1164 45.6759Z" fill="url(#paint1_linear_41_45)"/>
<defs>
<linearGradient id="paint0_linear_41_45" x1="31" y1="0" x2="31" y2="61.0895" gradientUnits="userSpaceOnUse">
<stop stop-color="#8C5B3F"/>
<stop offset="1" stop-color="#D99E6A"/>
</linearGradient>
<linearGradient id="paint1_linear_41_45" x1="24.9855" y1="31.9755" x2="24.9855" y2="45.7009" gradientUnits="userSpaceOnUse">
<stop stop-color="#8C5B3F"/>
<stop offset="1" stop-color="#D99E6A"/>
</linearGradient>
</defs>
</svg>
