<svg width="35" height="35" viewBox="0 0 35 35" fill="none" xmlns="http://www.w3.org/2000/svg">
<path d="M26.1686 12.5383L23.9004 16.5077C23.6235 16.9922 23.4851 17.2344 23.4851 17.5C23.4851 17.7655 23.6235 18.0078 23.9004 18.4922L26.1686 22.4616C27.4069 24.6286 28.026 25.7121 27.5432 26.2495C27.0604 26.7868 25.9171 26.2866 23.6304 25.2862L10.0215 19.3323C8.226 18.5467 7.32825 18.154 7.32825 17.5C7.32825 16.8459 8.226 16.4532 10.0215 15.6676L23.6305 9.71373C25.9171 8.71333 27.0604 8.21313 27.5432 8.75045C28.026 9.28777 27.4069 10.3713 26.1686 12.5383Z" stroke="#222222"/>
</svg>
