<svg width="35" height="35" viewBox="0 0 35 35" fill="none" xmlns="http://www.w3.org/2000/svg">
<path d="M8.83143 12.5383L11.0996 16.5077C11.3765 16.9922 11.5149 17.2344 11.5149 17.5C11.5149 17.7655 11.3765 18.0078 11.0996 18.4922L8.83142 22.4616C7.59312 24.6286 6.97397 25.7121 7.45679 26.2495C7.93962 26.7868 9.08293 26.2866 11.3696 25.2862L24.9785 19.3323C26.774 18.5467 27.6718 18.154 27.6718 17.5C27.6718 16.8459 26.774 16.4532 24.9785 15.6676L11.3695 9.71373C9.08293 8.71333 7.93962 8.21313 7.45679 8.75045C6.97397 9.28777 7.59312 10.3713 8.83143 12.5383Z" stroke="#222222"/>
</svg>
