<?xml version="1.0" encoding="utf-8"?>
<!-- Generator: Adobe Illustrator 26.5.0, SVG Export Plug-In . SVG Version: 6.00 Build 0)  -->
<svg version="1.1" id="Layer_1" xmlns="http://www.w3.org/2000/svg" xmlns:xlink="http://www.w3.org/1999/xlink" x="0px" y="0px"
	 viewBox="0 0 1125 2436" style="enable-background:new 0 0 1125 2436;" xml:space="preserve">
<g>
	<g>
		<path d="M399.54,1217.08c0.4-7.57,0.92-14.17,1.06-20.77c0.46-21.82,0.74-43.64,1.17-65.46c0.63-32.31,1.25-64.62,2.11-96.93
			c0.12-4.65-1.26-6.57-5.81-7.96c-23.18-7.12-37.63-30.3-34.13-53.97c3.42-23.12,23.48-41.6,45.89-42.26
			c25.77-0.76,46.81,15.21,51.39,39.68c3.82,20.4-2.99,37.16-19.58,49.55c-3.89,2.9-4.34,5.06-2.67,9.4
			c22.21,57.67,44.21,115.42,66.28,173.15c0.23,0.6,0.55,1.16,1.44,3.05c1.81-8.37,3.4-15.52,4.89-22.7
			c11.62-56.08,23.2-112.16,34.87-168.23c0.8-3.85,0.47-6.14-3.74-8.08c-22.05-10.17-33-35.28-25.98-58.65
			c6.81-22.66,30.19-38.13,52.66-34.85c25.9,3.78,44.06,23.81,43.87,48.94c-0.15,20.59-9.95,35.55-28.19,44.77
			c-3.58,1.81-4.43,3.52-3.66,7.19c9.51,45.47,18.92,90.95,28.35,136.43c3.48,16.79,6.98,33.58,10.47,50.37
			c0.26,1.24,0.04,2.67,1.74,3.76c4.14-10.8,8.24-21.48,12.33-32.17c18.32-47.92,36.59-95.87,55.03-143.75
			c1.45-3.77,1.05-5.79-2.4-8.21c-18.92-13.24-26.05-36.64-18.01-57.97c7.91-20.97,29.56-34.1,52.05-31.55
			c21.78,2.47,39.57,19.78,43.06,41.9c3.74,23.71-10.91,47.14-34.36,54.27c-4.37,1.33-5.64,3.25-5.54,7.65
			c0.87,38.64,1.09,77.3,2.41,115.92c0.76,22.13-0.16,44.31,2.01,66.48c1.45,0.17,1.68-1.27,2.24-2.12
			c30.62-46.87,61.16-93.8,91.89-140.6c2.38-3.63,0.57-5.14-1.49-7.5c-13.63-15.59-17.37-33.34-9.32-52.48
			c8.2-19.5,23.79-29.8,44.84-30.47c27.02-0.85,49.12,20.51,49.95,48.62c0.8,27.15-20.36,47.68-43.94,49.72
			c-3.76,0.33-4.99,2.19-5.67,5.6c-10.87,54.7-21.87,109.38-32.77,164.08c-2.73,13.71-5.78,27.34-7.3,41.29
			c-1.26,11.6-6.77,21.52-14.66,30.06c-2.71,2.94-5.41,5.94-8.46,8.5c-14.79,12.4-22.56,29.97-33.56,45.15
			c-1.23,1.69-1.42,3.75-1.23,5.76c0.36,3.64,0.89,7.26,1.34,10.89c1.02,8.25,3.85,15.17,10.07,21.44
			c10.06,10.14,13.98,23.22,12.96,37.56c-0.2,2.81,1.11,4.71,2.55,6.79c12.78,18.54,10.44,38.13-5.96,53.54
			c-4.63,4.35-10.11,5.46-15.91,6.25c-37.62,5.12-75.4,8.3-113.32,10.31c-46.63,2.47-93.28,2.55-139.9,1.39
			c-50.76-1.26-101.41-4.83-151.7-12.46c-4.95-0.75-8.63-3.15-12.08-6.42c-14.99-14.23-17.56-32.83-6.53-50.26
			c2.59-4.09,3.74-7.85,3.77-12.86c0.09-14.18,5.09-26.8,15.58-36.68c3.6-3.39,5.96-7.05,6.34-11.96c0.01-0.16,0.07-0.33,0.12-0.48
			c4.36-13.19,1.18-23.99-6.8-35.71c-9.75-14.32-20.4-27.42-32.65-39.51c-9.8-9.67-14.92-21.59-16.54-35.47
			c-2.65-22.67-8.3-44.83-12.71-67.2c-8.82-44.75-17.91-89.46-26.77-134.2c-0.7-3.55-2.23-5.04-5.86-5.4
			c-24.51-2.43-43.29-23.25-43.89-48.45c-0.56-23.31,17.31-44.98,40.45-49.05c21.28-3.74,42.37,6.27,52.38,24.85
			c10.39,19.3,7.46,41.74-7.7,57.8c-2.08,2.2-3.01,3.76-1.06,6.74c30.86,47.12,61.6,94.31,92.38,141.48
			C397.97,1215.18,398.42,1215.67,399.54,1217.08z M559.36,1502.77c42.78,0.11,80.89-1.22,118.96-3.82
			c26.58-1.82,53.08-4.27,79.45-8.08c7.4-1.07,10.36-6.44,7.34-13.29c-1.51-3.42-4-6.14-6.46-8.85c-3.55-3.9-4.69-8.39-3.55-13.43
			c0.71-3.14,0.81-6.28,0.62-9.44c-0.63-10.07-7.04-17.44-16.94-19.02c-12.65-2.02-25.39-3.44-38.12-4.89
			c-35.11-3.99-70.37-5.77-105.65-6.5c-45.31-0.94-90.6,0-135.82,3.66c-23.73,1.92-47.38,4.39-70.94,7.79
			c-5.56,0.8-9.12,3.45-12.06,7.76c-4.02,5.88-4.93,12.46-3.49,19.14c1.4,6.52-0.02,11.8-4.58,16.47c-2.34,2.39-4.4,5.01-5.6,8.2
			c-2.32,6.18,0.75,11.4,7.2,12.34c34.45,5.04,69.13,7.9,103.86,9.71C503.67,1502.1,533.81,1503.23,559.36,1502.77z M750.12,1335.88
			c2.56,0.09,2.67,0.16,4.26-2.16c6.35-9.27,14.22-17.17,22.26-24.93c3.35-3.24,6.74-6.46,9.22-10.48c2.83-4.6,2.53-5.56-2.67-6.41
			c-19.21-3.15-38.51-5.64-57.85-7.89c-41.86-4.88-83.88-7.44-125.98-8.54c-33.3-0.87-66.63-0.46-99.92,0.91
			c-12.47,0.51-24.94,1.16-37.39,2.13c-26.37,2.05-52.73,4.34-78.96,7.82c-13.19,1.75-26.33,3.9-39.51,5.75
			c-3.41,0.48-3.82,1.99-2.34,4.73c2.33,4.33,5.75,7.74,9.22,11.11c8.02,7.78,16.14,15.49,22.35,24.84c1.91,2.87,3.89,3.51,7.05,2.9
			c19.15-3.69,38.57-5.31,57.98-6.7c35.38-2.53,70.84-3.4,106.29-3.9c43.81-0.63,87.58,0.77,131.33,2.92
			c14.28,0.7,28.52,2.26,42.78,3.54C729.02,1332.47,739.72,1334.01,750.12,1335.88z M395.4,1394.89c-0.07,2.56,0.41,2.81,4.69,2.25
			c38.98-5.15,78.16-8.21,117.44-9.09c42.12-0.95,84.26-1.01,126.38,1.49c28.1,1.67,56.11,4.09,84.02,7.61
			c4.71,0.59,5.18-0.76,4.3-4.71c-2.08-9.32-2.14-18.53,2.4-27.28c1.9-3.66-0.55-3.7-3.08-4.04c-39.01-5.31-78.29-6.87-117.55-7.62
			c-56.47-1.07-112.95-0.86-169.35,2.89c-16.27,1.08-32.53,2.44-48.68,4.79c-2.82,0.41-4.13,1.05-2.57,4
			c1.81,3.42,2.77,7.12,3.41,10.92C397.84,1382.32,396.36,1388.35,395.4,1394.89z M564.58,1068.35c-0.4,0.04-0.8,0.07-1.2,0.11
			c-2.24,10.74-4.48,21.48-6.71,32.23c-9.73,46.95-19.46,93.89-29.18,140.84c-1.27,6.14-1.24,6.09,4.89,6.15
			c20.98,0.2,41.95-1.2,62.94-0.13c6.41,0.33,6.44,0.06,5.13-6.26c-9.25-44.66-18.51-89.33-27.77-133.99
			C569.99,1094.32,567.28,1081.34,564.58,1068.35z M431.3,1085.89c-0.48,23.29-2.16,46.38-2.13,69.5
			c0.01,6.49-0.31,12.98-0.45,19.47c-0.51,24.96-0.99,49.91-1.54,74.87c-0.06,2.87,0.97,3.63,3.88,3.4
			c19.23-1.5,38.47-2.92,57.72-4.06c4.5-0.27,4.32-1.79,3.01-5.19c-10.91-28.25-21.69-56.56-32.51-84.84
			C449.96,1134.66,440.63,1110.27,431.3,1085.89z M696.76,1085.88c-0.84,2.15-1.7,4.3-2.53,6.46
			c-18.97,49.59-37.94,99.18-56.91,148.78c-2.58,6.76-2.26,7.39,4.89,7.5c17.81,0.29,35.57,1.4,53.3,3.02
			c3.82,0.35,5.5-0.71,5.32-4.85c-0.45-10.81-0.68-21.62-0.87-32.44c-0.47-26.97-0.53-53.94-1.45-80.89
			C697.97,1117.66,697.98,1101.85,696.76,1085.88z M308.31,1128.52c-0.21,0.15-0.42,0.29-0.64,0.44
			c8.76,43.69,17.57,87.37,26.17,131.09c0.84,4.27,2.76,4.99,6.52,4.42c15.27-2.31,30.56-4.49,45.85-6.64
			c5.94-0.83,5.95-0.72,2.51-6.01c-11.63-17.85-23.25-35.7-34.89-53.55C338.67,1175.01,323.49,1151.77,308.31,1128.52z
			 M820.06,1129.7c-1.41,0.88-1.6,0.94-1.68,1.07c-26.41,40.41-52.81,80.84-79.26,121.23c-1.77,2.71-1.25,3.53,1.92,3.95
			c15.33,2.05,30.65,4.16,45.8,7.3c6.38,1.32,6.39,1.34,7.67-5.09c7.02-35.06,14.03-70.13,21.03-105.2
			C817.03,1145.53,818.44,1138.09,820.06,1129.7z M736.71,978.8c-0.08-11.88-9.91-21.56-21.8-21.48
			c-11.72,0.08-21.69,10.19-21.55,21.87c0.14,11.74,10.21,21.6,21.94,21.49C727.15,1000.56,736.79,990.7,736.71,978.8z
			 M564.02,982.75c12.01-0.01,21.73-9.68,21.65-21.55c-0.08-11.85-9.97-21.78-21.69-21.76c-11.7,0.01-21.6,9.97-21.66,21.79
			C542.27,973.01,552.09,982.76,564.02,982.75z M412.78,957.32c-11.87,0.07-21.53,9.87-21.49,21.78
			c0.05,11.85,9.98,21.72,21.7,21.57c11.84-0.16,21.74-10.12,21.64-21.79C434.54,967.14,424.51,957.25,412.78,957.32z
			 M270.66,1010.98c-12.3,0-21.46,9.12-21.47,21.38c0,12.14,9.31,21.45,21.45,21.45c12.24-0.01,21.39-9.2,21.38-21.47
			C292.01,1019.89,283.1,1010.98,270.66,1010.98z M857.1,1010.98c-12.41,0.09-21.22,9.09-21.13,21.58
			c0.08,12.26,9.3,21.31,21.61,21.24c12.08-0.07,21.29-9.47,21.22-21.68C878.73,1019.93,869.45,1010.89,857.1,1010.98z"/>
	</g>
</g>
</svg>
