<?xml version="1.0" encoding="utf-8"?>
<!-- Generator: Adobe Illustrator 26.5.0, SVG Export Plug-In . SVG Version: 6.00 Build 0)  -->
<svg version="1.1" id="Layer_1" xmlns="http://www.w3.org/2000/svg" xmlns:xlink="http://www.w3.org/1999/xlink" x="0px" y="0px"
	 viewBox="0 0 1125 2436" style="enable-background:new 0 0 1125 2436;" xml:space="preserve">
<g>
	<g>
		<path d="M563.69,1531.35c-78.66,0-157.31,0-235.97,0c-12.89,0-17.78-4.86-17.81-17.8c-0.03-15.16-0.04-30.33,0-45.49
			c0.04-12.36,5.04-17.39,17.2-17.4c10.5-0.01,21-0.16,31.49,0.08c4.03,0.09,5.15-1.34,5.11-5.21c-0.17-16.66-0.08-33.33-0.06-49.99
			c0.01-9.75,2.86-13.51,12.24-15.92c2.15-0.55,3.43-1.84,4.49-3.62c5.55-9.3,11.09-18.61,16.73-27.85
			c1.38-2.26,1.73-4.61,1.73-7.15c-0.01-67.99-0.03-135.98,0.05-203.98c0-3.46-1.16-5.95-3.58-8.34
			c-14.57-14.42-28.96-29.01-43.57-43.4c-4.18-4.12-6.21-8.62-6.17-14.6c0.21-27.83,0.1-55.66,0.13-83.49
			c0.01-11.47,5-16.51,16.35-16.52c22.16-0.02,44.33-0.02,66.49,0c10.9,0.01,15.75,4.94,15.79,15.93c0.02,4.83,0.15,9.67-0.04,14.5
			c-0.13,3.38,1.01,4.8,4.55,4.78c17.5-0.11,35-0.1,52.49-0.01c3.22,0.01,4.48-1.21,4.39-4.43c-0.15-5.33-0.09-10.67-0.01-16
			c0.13-9.18,5.52-14.72,14.59-14.74c29.16-0.06,58.33-0.06,87.49,0c8.82,0.02,14.29,5.53,14.46,14.35c0.11,5.33,0.15,10.67-0.01,16
			c-0.1,3.31,0.91,4.86,4.51,4.83c17.5-0.11,35-0.09,52.49-0.01c3.17,0.01,4.53-1.09,4.43-4.38c-0.16-5.66-0.12-11.33,0-17
			c0.18-8.36,5.48-13.75,13.88-13.78c23.5-0.1,46.99-0.09,70.49-0.01c8.51,0.03,14.15,5.57,14.19,14.1
			c0.12,29.5,0.05,58.99,0.1,88.49c0.01,4.93-2.56,8.43-5.84,11.7c-14.53,14.46-28.96,29.02-43.55,43.41
			c-2.7,2.66-3.86,5.43-3.86,9.23c0.09,67.49,0.08,134.98,0.03,202.48c0,3.45,0.74,6.46,2.58,9.43
			c5.36,8.63,10.54,17.38,15.71,26.13c1.36,2.31,3.05,3.59,5.8,4.13c7.14,1.4,11.07,6.38,11.1,13.85
			c0.07,17.16,0.17,34.33-0.06,51.49c-0.06,4.49,1.43,5.71,5.75,5.61c10.99-0.26,22-0.13,32.99-0.07c8.84,0.05,14.73,5.11,14.92,14
			c0.37,17.49,0.37,35,0.02,52.49c-0.19,9.27-6.12,14.18-15.76,14.18C722.67,1531.35,643.18,1531.35,563.69,1531.35z
			 M563.99,1334.78c43.32,0,86.63,0,129.95,0c7.02,0,7.04-0.02,7.05-6.81c0.01-64.64,0.01-129.28,0-193.92
			c0-6.82-0.03-6.83-7.02-6.84c-86.63,0-173.26,0-259.89,0c-7.02,0-7.05,0.02-7.05,6.81c-0.01,64.64-0.01,129.28,0,193.92
			c0,6.81,0.03,6.83,7.02,6.83C477.36,1334.79,520.67,1334.78,563.99,1334.78z M563.94,1407.3c-55.49,0-110.97,0.05-166.46-0.09
			c-4.66-0.01-6.49,1.11-6.33,6.09c0.34,10.65,0.25,21.33,0.03,31.99c-0.09,4.11,1.25,5.44,5.42,5.44
			c111.64-0.09,223.28-0.1,334.92,0.01c4.33,0,5.36-1.6,5.29-5.56c-0.2-10.33-0.06-20.66-0.07-30.99c-0.01-6.86-0.01-6.88-6.84-6.88
			C674.58,1407.29,619.26,1407.3,563.94,1407.3z M564.02,1059.06c60.48,0,120.96,0,181.44,0c1.5,0,3-0.09,4.5,0.01
			c3.34,0.21,4.79-1.11,4.76-4.64c-0.11-17.16-0.11-34.32,0-51.48c0.02-3.39-1.03-4.78-4.57-4.74c-11.49,0.15-22.99,0.12-34.49,0.01
			c-3.19-0.03-4.53,1.11-4.44,4.37c0.15,5.16,0.1,10.33-0.01,15.49c-0.04,1.97-0.19,4.03-0.77,5.9c-2.04,6.56-7.12,9.93-15.58,9.96
			c-27.99,0.1-55.98,0.04-83.97,0.02c-1.32,0-2.66-0.19-3.97-0.41c-7.67-1.29-12.05-6.26-12.21-14.04c-0.12-5.5-0.16-11,0.01-16.49
			c0.1-3.32-0.89-4.83-4.5-4.81c-17.49,0.12-34.99,0.12-52.48,0c-3.65-0.03-4.55,1.57-4.46,4.85c0.16,5.66,0.16,11.33-0.01,16.99
			c-0.22,7.2-4.61,12.15-11.74,13.4c-2.12,0.37-4.3,0.52-6.46,0.52c-26.66,0.03-53.32,0.03-79.97,0.01c-1.83,0-3.67-0.06-5.48-0.33
			c-8.09-1.19-12.67-6.37-12.84-14.61c-0.11-5.33-0.2-10.67,0.02-15.99c0.16-3.78-1.39-4.9-5-4.85c-10.99,0.16-22,0.25-32.99-0.04
			c-4.55-0.12-5.62,1.58-5.57,5.82c0.21,15.99,0.08,31.99,0.08,47.98c0,7.07,0.01,7.09,7.25,7.09
			C441.73,1059.07,502.87,1059.06,564.02,1059.06z M564.51,1478.26c0,0.02,0,0.04,0,0.06c-61.49,0-122.98,0-184.47,0
			c-12.33,0-24.66,0.05-36.99-0.11c-3.65-0.05-5.17,1.2-4.99,4.91c0.2,4.16,0.04,8.33,0.04,12.5c0,8.12,0.01,8.13,8.18,8.13
			c145.14,0,290.28,0,435.42,0c1.33,0,2.67-0.08,4,0c2.96,0.19,4.27-1.12,4.21-4.11c-0.09-4.66,0-9.33-0.01-14
			c-0.01-7.37-0.01-7.38-7.43-7.38C709.82,1478.26,637.17,1478.26,564.51,1478.26z M564,1379.06c32.66,0,65.33,0,97.99,0
			c16.33,0,32.66,0.02,49-0.03c1.57-0.01,3.69,0.8,4.58-0.95c0.84-1.66-0.91-3.04-1.72-4.42c-3.61-6.19-8.12-12.01-10.7-18.59
			c-2.05-5.25-4.94-5.85-9.66-5.85c-85.33,0.1-170.65,0.13-255.98-0.05c-6.43-0.01-10.95,0.37-13.62,7.66
			c-2.42,6.61-7.07,12.4-10.8,18.52c-1.46,2.41-1.19,3.73,1.92,3.69c1.33-0.02,2.67,0.01,4,0.01
			C467.35,1379.06,515.67,1379.06,564,1379.06z M394.08,1087.52c8.17,8.34,15.9,16.28,23.69,24.16c1.29,1.31,3.11,1,4.76,1
			c94.29,0.01,188.59,0,282.88,0.05c2.91,0,5.03-0.93,7.03-2.98c6.27-6.45,12.71-12.73,19.03-19.14c0.81-0.82,2.4-1.39,1.79-3.1
			C620.32,1087.52,507.46,1087.52,394.08,1087.52z"/>
	</g>
</g>
</svg>
