<svg width="65" height="72" viewBox="0 0 65 72" fill="none" xmlns="http://www.w3.org/2000/svg">
<path d="M32.4563 71.7029C22.3974 71.7029 12.3398 71.7029 2.28088 71.7029C0.632534 71.7029 0.0072101 71.0814 0.00337376 69.4266C-0.000462587 67.488 -0.00174137 65.5481 0.00337376 63.6095C0.00848888 62.0289 0.647877 61.3857 2.20288 61.3844C3.5456 61.3831 4.88832 61.3639 6.22976 61.3946C6.74511 61.4061 6.88833 61.2233 6.88322 60.7284C6.86148 58.5979 6.87299 56.4662 6.87554 54.3357C6.87682 53.0889 7.24128 52.6081 8.44077 52.2999C8.71571 52.2296 8.87939 52.0646 9.01495 51.837C9.72467 50.6477 10.4331 49.4572 11.1543 48.2756C11.3308 47.9866 11.3756 47.6861 11.3756 47.3613C11.3743 38.6668 11.3717 29.9724 11.382 21.2767C11.382 20.8342 11.2336 20.5158 10.9242 20.2102C9.06098 18.3662 7.22081 16.5004 5.35251 14.6603C4.81798 14.1334 4.55839 13.558 4.56351 12.7933C4.59036 9.2344 4.5763 5.67555 4.58013 2.1167C4.58141 0.649939 5.21952 0.00543045 6.67094 0.00415167C9.50472 0.00159411 12.3398 0.00159411 15.1736 0.00415167C16.5674 0.00543045 17.1876 0.635869 17.1927 2.04125C17.1953 2.6589 17.2119 3.27783 17.1876 3.89548C17.171 4.32771 17.3168 4.5093 17.7695 4.50674C20.0073 4.49268 22.2452 4.49395 24.4818 4.50546C24.8936 4.50674 25.0547 4.35073 25.0432 3.93896C25.024 3.25737 25.0317 2.5745 25.0419 1.89291C25.0585 0.718993 25.7478 0.0105493 26.9077 0.00799176C30.6366 0.000319071 34.3668 0.000319071 38.0957 0.00799176C39.2236 0.0105493 39.9231 0.715155 39.9448 1.84304C39.9589 2.52463 39.964 3.2075 39.9436 3.88909C39.9308 4.31237 40.0599 4.51058 40.5203 4.50674C42.7581 4.49268 44.996 4.49523 47.2326 4.50546C47.638 4.50674 47.8119 4.36608 47.7991 3.94536C47.7786 3.22157 47.7838 2.4965 47.7991 1.77143C47.8221 0.702367 48.4999 0.0131081 49.5741 0.00927179C52.5792 -0.00351602 55.583 -0.00223849 58.5882 0.00799176C59.6764 0.0118281 60.3977 0.72027 60.4028 1.81107C60.4181 5.58348 60.4092 9.35461 60.4156 13.127C60.4168 13.7575 60.0882 14.205 59.6688 14.6232C57.8107 16.4723 55.9654 18.3342 54.0997 20.1744C53.7544 20.5145 53.6061 20.8688 53.6061 21.3547C53.6176 29.9852 53.6163 38.6157 53.6099 47.2474C53.6099 47.6886 53.7045 48.0735 53.9398 48.4533C54.6252 49.5569 55.2877 50.6759 55.9488 51.7948C56.1227 52.0902 56.3388 52.2539 56.6905 52.3229C57.6035 52.502 58.1061 53.1388 58.1099 54.094C58.1189 56.2884 58.1317 58.4841 58.1022 60.6785C58.0946 61.2527 58.2851 61.4087 58.8375 61.3959C60.2429 61.3626 61.6509 61.3793 63.0562 61.3869C64.1867 61.3933 64.9399 62.0404 64.9642 63.1772C65.0115 65.4138 65.0115 67.653 64.9667 69.8896C64.9424 71.075 64.1841 71.7029 62.9514 71.7029C52.7864 71.7029 42.6213 71.7029 32.4563 71.7029ZM32.4946 46.5659C38.0343 46.5659 43.5727 46.5659 49.1124 46.5659C50.0101 46.5659 50.0127 46.5633 50.014 45.695C50.0152 37.429 50.0152 29.1629 50.014 20.8969C50.014 20.0248 50.0101 20.0235 49.1162 20.0222C38.0382 20.0222 26.9601 20.0222 15.882 20.0222C14.9843 20.0222 14.9805 20.0248 14.9805 20.893C14.9792 29.1591 14.9792 37.4251 14.9805 45.6912C14.9805 46.562 14.9843 46.5646 15.8782 46.5646C21.4166 46.5671 26.955 46.5659 32.4946 46.5659ZM32.4883 55.8396C25.3923 55.8396 18.2976 55.846 11.2017 55.8281C10.6058 55.8268 10.3717 55.97 10.3922 56.6069C10.4357 57.9688 10.4242 59.3345 10.396 60.6977C10.3845 61.2233 10.5559 61.3933 11.0891 61.3933C25.3654 61.3818 39.6418 61.3805 53.9181 61.3946C54.4718 61.3946 54.6035 61.19 54.5945 60.6836C54.569 59.3626 54.5869 58.0416 54.5856 56.7207C54.5843 55.8434 54.5843 55.8409 53.7109 55.8409C46.6367 55.8383 39.5625 55.8396 32.4883 55.8396ZM32.4985 11.3073C40.2326 11.3073 47.9666 11.3073 55.7007 11.3073C55.8925 11.3073 56.0843 11.2958 56.2761 11.3086C56.7033 11.3354 56.8887 11.1666 56.8848 10.7152C56.8708 8.52084 56.8708 6.32645 56.8848 4.13206C56.8874 3.69855 56.7531 3.52081 56.3004 3.52592C54.8311 3.5451 53.3605 3.54126 51.8899 3.52719C51.482 3.52336 51.3106 3.66914 51.3221 4.08603C51.3413 4.74588 51.3349 5.40701 51.3209 6.06686C51.3158 6.31878 51.2966 6.5822 51.2224 6.82133C50.9615 7.66021 50.3119 8.09116 49.2301 8.095C45.6507 8.10778 42.0714 8.10011 38.4921 8.09756C38.3233 8.09756 38.152 8.07327 37.9845 8.04514C37.0036 7.88017 36.4435 7.24462 36.4231 6.24972C36.4077 5.54639 36.4026 4.84306 36.4243 4.14101C36.4371 3.71646 36.3105 3.52336 35.8489 3.52592C33.6123 3.54127 31.3744 3.54127 29.1378 3.52592C28.6711 3.52208 28.556 3.72669 28.5675 4.14613C28.588 4.86992 28.588 5.59498 28.5662 6.31877C28.5381 7.2395 27.9767 7.87249 27.0649 8.03234C26.7938 8.07965 26.5151 8.09884 26.2389 8.09884C22.8296 8.10267 19.4204 8.10267 16.0124 8.10012C15.7784 8.10012 15.5431 8.09245 15.3117 8.05792C14.2771 7.90575 13.6914 7.24333 13.6697 6.18962C13.6556 5.50803 13.6441 4.82516 13.6723 4.14485C13.6927 3.66147 13.4945 3.51825 13.0329 3.52464C11.6275 3.5451 10.2196 3.5566 8.81418 3.51952C8.23233 3.50417 8.0955 3.72157 8.10189 4.26377C8.12875 6.30854 8.11213 8.35459 8.11213 10.3994C8.11213 11.3035 8.11341 11.306 9.03924 11.306C16.8603 11.3086 24.6787 11.3073 32.4985 11.3073ZM32.5611 64.9138C32.5611 64.9164 32.5611 64.9189 32.5611 64.9215C24.6979 64.9215 16.8347 64.9215 8.97147 64.9215C7.39473 64.9215 5.81799 64.9279 4.24125 64.9074C3.7745 64.901 3.58012 65.0609 3.60314 65.5353C3.62872 66.0673 3.60826 66.6005 3.60826 67.1338C3.60826 68.1721 3.60954 68.1734 4.6543 68.1734C23.2145 68.1734 41.7748 68.1734 60.335 68.1734C60.5051 68.1734 60.6764 68.1632 60.8465 68.1734C61.225 68.1977 61.3925 68.0302 61.3849 67.6479C61.3734 67.0519 61.3849 66.4548 61.3836 65.8576C61.3823 64.9151 61.3823 64.9138 60.4335 64.9138C51.1431 64.9138 41.8528 64.9138 32.5611 64.9138ZM32.4959 52.2283C36.6724 52.2283 40.8502 52.2283 45.0267 52.2283C47.115 52.2283 49.2032 52.2309 51.2927 52.2245C51.4935 52.2232 51.7646 52.3268 51.8784 52.103C51.9858 51.8907 51.762 51.7142 51.6585 51.5378C51.1968 50.7462 50.6201 50.0019 50.2902 49.1605C50.028 48.4891 49.6585 48.4124 49.0549 48.4124C38.143 48.4252 27.2325 48.4291 16.3206 48.406C15.4984 48.4048 14.9204 48.4533 14.5789 49.3856C14.2695 50.2308 13.6748 50.9713 13.1978 51.7539C13.0111 52.0621 13.0457 52.2309 13.4434 52.2257C13.6134 52.2232 13.7848 52.227 13.9549 52.227C20.1365 52.2283 26.3156 52.2283 32.4959 52.2283ZM10.7669 14.9467C11.8116 16.0132 12.8001 17.0286 13.7963 18.0363C13.9613 18.2038 14.194 18.1641 14.405 18.1641C26.4626 18.1654 38.5215 18.1641 50.5792 18.1705C50.9513 18.1705 51.2224 18.0516 51.4782 17.7894C52.28 16.9646 53.1035 16.1616 53.9117 15.3419C54.0153 15.237 54.2186 15.1641 54.1406 14.9454C39.698 14.9467 25.2657 14.9467 10.7669 14.9467Z" fill="black"/>
</svg>
