<svg width="80" height="81" viewBox="0 0 80 81" fill="none" xmlns="http://www.w3.org/2000/svg">
<path d="M32.2064 68.8386C29.7425 68.2959 27.3176 67.7401 25.0164 66.7379C24.1586 66.3643 23.3711 65.871 22.5641 65.4024C20.695 64.3169 20.518 62.4777 20.3254 60.6294C20.216 59.5829 20.725 58.6406 20.8447 57.6422C21.1974 54.7201 22.4756 52.277 24.5022 50.1945C24.825 49.8626 24.8471 49.6907 24.4293 49.4213C20.5362 46.904 18.5279 43.2179 17.976 38.7078C17.3161 33.3166 18.9248 28.4993 21.9693 24.1181C25.114 19.5924 29.365 16.3645 34.2408 13.9005C35.1025 13.4658 35.1025 13.4645 34.4738 12.7772C32.2988 10.3927 31.8029 7.09573 33.1943 4.25302C34.5792 1.42073 37.517 -0.296084 40.7111 0.042333C43.8571 0.376845 46.0919 2.08195 47.1449 5.08085C48.1888 8.05241 47.482 10.7259 45.3162 12.992C44.9595 13.3656 44.9036 13.4788 45.4112 13.7248C48.6704 15.3076 51.6667 17.2847 54.2973 19.789C58.3544 23.6508 61.1971 28.213 61.9819 33.8398C62.6965 38.9655 61.6071 43.6318 57.9678 47.5106C57.2831 48.2408 56.5087 48.8785 55.6418 49.381C55.1628 49.6595 55.1719 49.8547 55.5468 50.2387C57.2454 51.9829 58.4689 54.0056 58.9453 56.42C59.121 57.3116 59.3084 58.1954 59.531 59.0779C59.9501 60.744 59.5323 62.3462 58.9674 63.9121C58.8164 64.3325 58.4494 64.6006 58.1136 64.8753C56.0818 66.54 53.6712 67.3756 51.1773 68.0134C50.067 68.2972 48.9359 68.495 47.6968 68.7566C48.8084 69.0456 49.8497 69.1484 50.8831 69.2369C53.1297 69.4296 55.3815 69.5168 57.6372 69.548C60.5411 69.5884 63.4449 69.7055 66.3475 69.7862C71.4342 69.9268 75.7243 71.8636 79.2542 75.512C80.2005 76.4908 80.246 77.3095 79.3922 78.3859C77.622 80.6156 75.2765 81.0308 72.6551 80.4529C71.2194 80.1366 69.841 79.5808 68.3624 79.4246C65.5327 79.1239 62.6991 79.0367 59.8577 79.1422C59.5766 79.1526 59.2954 79.189 59.0143 79.189C55.6106 79.1981 52.2082 79.353 48.8045 79.2215C45.9592 79.1122 43.1399 78.8285 40.4182 77.9277C40.1371 77.8353 39.8794 77.834 39.5982 77.9265C36.7477 78.8584 33.7996 79.1369 30.8215 79.2307C26.0941 79.379 21.3706 79.0614 16.6457 79.1174C13.721 79.1526 10.7989 79.297 7.98746 80.2863C6.66113 80.7535 5.2632 80.8277 3.8796 80.5166C2.3437 80.1717 1.18267 79.2593 0.318405 77.9681C-0.151474 77.2665 -0.108519 76.4348 0.495425 75.8074C3.44486 72.7409 6.87589 70.5555 11.2076 70.0426C13.6442 69.7537 16.0886 69.6886 18.5383 69.63C22.0695 69.5454 25.6073 69.5832 29.1294 69.2448C30.1577 69.1445 31.1808 68.9766 32.2064 68.8386ZM40.0252 47.4064C43.3651 47.4064 46.7063 47.3596 50.0436 47.4286C51.4676 47.4585 52.6872 47.042 53.8183 46.2662C57.1074 44.0131 58.4494 40.7227 58.5548 36.8973C58.6772 32.4588 57.0254 28.5878 54.3155 25.1516C50.6606 20.5166 45.8004 17.5854 40.3948 15.4481C40.1111 15.3362 39.8546 15.3518 39.5787 15.4611C34.535 17.463 29.9403 20.1495 26.3765 24.3303C22.9572 28.3418 20.9462 32.8922 21.5697 38.2939C21.9667 41.7366 23.4844 44.5715 26.4976 46.4628C27.5037 47.094 28.5749 47.4455 29.8089 47.4259C33.2152 47.37 36.6215 47.4064 40.0252 47.4064ZM4.50697 76.9294C5.5066 77.2119 6.33963 77.0492 7.1284 76.7797C10.0843 75.7697 13.1444 75.5432 16.2292 75.5172C18.6997 75.4964 21.1701 75.5445 23.6419 75.607C26.5874 75.6812 29.5368 75.7372 32.4837 75.525C34.7836 75.3597 37.0536 75.0772 39.2169 74.2195C39.6776 74.0373 40.1566 73.9813 40.6148 74.1609C43.7204 75.3805 46.9822 75.564 50.261 75.6395C54.2074 75.7306 58.15 75.5055 62.0965 75.5029C65.8568 75.5003 69.5924 75.6291 73.2031 76.863C73.8799 77.0947 74.6205 77.208 75.4809 76.9216C73.7185 75.5263 71.9665 74.3627 69.8423 73.8954C67.437 73.3656 64.9821 73.3071 62.5377 73.2589C58.616 73.1808 54.6916 73.2107 50.7816 72.8515C47.1775 72.5209 43.6527 71.8792 40.4221 70.1259C40.1514 69.9789 39.908 69.9515 39.6269 70.1064C36.5069 71.8336 33.0863 72.4792 29.598 72.8255C26.1891 73.1639 22.7633 73.2159 19.3388 73.2329C16.8019 73.2446 14.2729 73.363 11.7478 73.6181C9.00531 73.8941 6.73531 75.1501 4.50697 76.9294ZM39.9965 56.6569C44.8528 56.6569 49.7091 56.6582 54.5654 56.6556C55.2995 56.6556 55.3372 56.6114 55.06 55.928C54.2881 54.0264 52.9787 52.5491 51.3804 51.3021C51.1226 51.1017 50.8311 51.0704 50.5213 51.0704C43.5187 51.0717 36.516 51.0717 29.5134 51.0704C29.2062 51.0704 28.9081 51.09 28.6517 51.2917C27.0586 52.5426 25.7335 54.0069 24.9591 55.9098C24.6727 56.6127 24.7105 56.6556 25.4927 56.6556C30.3269 56.6582 35.1611 56.6569 39.9965 56.6569ZM40.072 60.3274C35.1702 60.3274 30.2683 60.3274 25.3665 60.3274C25.0411 60.3274 24.7157 60.3314 24.3903 60.3288C24.1091 60.3274 23.9529 60.4056 23.9725 60.7453C24.0232 61.6134 24.2289 62.3645 25.1231 62.7523C25.5995 62.958 26.0394 63.2469 26.5171 63.4487C30.0458 64.9442 33.7892 65.4011 37.5638 65.5885C41.1198 65.7643 44.6719 65.6094 48.1862 64.9612C50.5825 64.5186 52.9254 63.9186 55.0522 62.6573C55.6288 62.315 55.9191 61.8594 55.9841 61.2021C56.0713 60.3287 56.0896 60.3288 55.2305 60.3274C50.179 60.3261 45.1261 60.3274 40.072 60.3274ZM39.9887 3.60613C37.8111 3.61524 35.9915 5.44529 36.0175 7.59945C36.0448 9.77313 37.884 11.5993 40.0252 11.5772C42.1936 11.555 43.995 9.73408 43.9963 7.563C43.9977 5.40364 42.1676 3.59702 39.9887 3.60613Z" fill="black"/>
<path d="M35.8197 32.5044C35.299 32.5044 34.7784 32.5135 34.2591 32.5031C33.2074 32.481 32.4511 31.7664 32.4251 30.7837C32.3991 29.7749 33.1449 28.964 34.2031 28.9263C35.2639 28.8885 36.3286 28.8872 37.3894 28.9237C37.9738 28.9432 38.2068 28.7714 38.1821 28.157C38.1417 27.1392 38.1496 26.1187 38.1821 25.1009C38.2172 23.975 38.8641 23.2448 39.8234 23.1758C40.9779 23.0925 41.7771 23.8149 41.8279 25.0592C41.8695 26.0979 41.8669 27.1405 41.8318 28.1805C41.8123 28.7545 42.0153 28.9432 42.5828 28.9224C43.6007 28.8859 44.6198 28.9016 45.639 28.9159C46.8 28.9328 47.5914 29.6864 47.5888 30.7407C47.5862 31.7924 46.7974 32.4966 45.6012 32.5031C44.5391 32.5083 43.477 32.5174 42.4149 32.4992C41.9919 32.4927 41.8344 32.658 41.8383 33.0732C41.85 34.1574 41.8695 35.2417 41.8292 36.3246C41.7732 37.8449 40.5354 38.7131 39.2728 38.1469C38.4515 37.7785 38.1873 37.0704 38.1769 36.2374C38.1639 35.1974 38.16 34.1561 38.1769 33.1162C38.1834 32.6801 38.0389 32.4784 37.5756 32.5005C36.9911 32.5278 36.4054 32.507 35.8197 32.507C35.8197 32.5057 35.8197 32.5044 35.8197 32.5044Z" fill="black"/>
</svg>
