<svg width="85" height="77" viewBox="0 0 85 77" fill="none" xmlns="http://www.w3.org/2000/svg">
<path d="M22.1172 37.8764C22.1668 36.9377 22.2313 36.1194 22.2487 35.301C22.3057 32.5955 22.3404 29.8899 22.3937 27.1843C22.4719 23.1781 22.5487 19.1718 22.6554 15.1656C22.6702 14.589 22.4991 14.3509 21.935 14.1786C19.0608 13.2957 17.2691 10.4215 17.703 7.48658C18.1271 4.61983 20.6144 2.32842 23.3931 2.24658C26.5885 2.15234 29.1973 4.13253 29.7652 7.16668C30.2389 9.69616 29.3945 11.7743 27.3374 13.3106C26.8551 13.6702 26.7993 13.938 27.0063 14.4761C29.7602 21.6269 32.4881 28.7876 35.2247 35.9458C35.2532 36.0202 35.2929 36.0896 35.4032 36.324C35.6277 35.2861 35.8248 34.3996 36.0096 33.5093C37.4504 26.5557 38.8862 19.6021 40.3333 12.6497C40.4324 12.1723 40.3915 11.8884 39.8695 11.6478C37.1354 10.3868 35.7777 7.27332 36.6481 4.37557C37.4925 1.56586 40.3915 -0.352342 43.1777 0.0543593C46.3891 0.523058 48.6409 3.00667 48.6173 6.12265C48.5987 8.67569 47.3836 10.5307 45.1219 11.6739C44.678 11.8983 44.5726 12.1103 44.6681 12.5654C45.8473 18.2034 47.0141 23.8427 48.1833 29.482C48.6148 31.5638 49.0488 33.6457 49.4816 35.7276C49.5138 35.8813 49.4865 36.0586 49.6973 36.1938C50.2106 34.8546 50.719 33.5304 51.2262 32.2049C53.4977 26.2631 55.7631 20.3175 58.0496 14.3807C58.2294 13.9132 58.1798 13.6627 57.752 13.3627C55.406 11.721 54.5219 8.81952 55.5188 6.17472C56.4996 3.57456 59.1841 1.94651 61.9728 2.2627C64.6733 2.56897 66.8792 4.71531 67.312 7.45807C67.7757 10.398 65.9592 13.3032 63.0515 14.1872C62.5097 14.3522 62.3522 14.5902 62.3646 15.1358C62.4725 19.927 62.4997 24.7206 62.6634 29.5092C62.7576 32.2532 62.6436 35.0034 62.9126 37.7524C63.0924 37.7735 63.1209 37.5949 63.1904 37.4895C66.9871 31.6779 70.7739 25.8588 74.5842 20.0559C74.8793 19.6058 74.6549 19.4186 74.3995 19.1259C72.7094 17.1929 72.2457 14.992 73.2439 12.6187C74.2606 10.2008 76.1937 8.92368 78.8038 8.8406C82.1541 8.73521 84.8944 11.3837 84.9973 14.8692C85.0965 18.2357 82.4727 20.7813 79.549 21.0342C79.0827 21.0751 78.9302 21.3058 78.8459 21.7286C77.4981 28.5111 76.1342 35.2911 74.7826 42.0736C74.4441 43.7736 74.0659 45.4636 73.8775 47.1933C73.7212 48.6317 73.038 49.8617 72.0597 50.9206C71.7237 51.2851 71.3889 51.6571 71.0107 51.9745C69.1768 53.5121 68.2134 55.6907 66.8495 57.5729C66.6969 57.7825 66.6734 58.0379 66.6969 58.2871C66.7416 58.7384 66.8073 59.1873 66.8631 59.6374C66.9896 60.6603 67.3405 61.5184 68.1117 62.2958C69.3591 63.5531 69.8452 65.175 69.7187 66.9531C69.6939 67.3015 69.8563 67.5371 70.0349 67.795C71.6195 70.0938 71.3294 72.5229 69.2959 74.4337C68.7218 74.973 68.0423 75.1107 67.3231 75.2086C62.6584 75.8435 57.9739 76.2378 53.2721 76.487C47.4902 76.7933 41.7059 76.8032 35.9253 76.6594C29.6313 76.5031 23.351 76.0605 17.1153 75.1144C16.5015 75.0214 16.0452 74.7238 15.6174 74.3183C13.7588 72.5539 13.4401 70.2476 14.8078 68.0864C15.1289 67.5792 15.2715 67.113 15.2752 66.4918C15.2864 64.7336 15.9064 63.1688 17.2071 61.9437C17.6534 61.5234 17.9461 61.0695 17.9932 60.4607C17.9944 60.4409 18.0019 60.4198 18.0081 60.4012C18.5487 58.7657 18.1544 57.4266 17.1649 55.9734C15.9559 54.1978 14.6354 52.5734 13.1165 51.0743C11.9013 49.8753 11.2665 48.3973 11.0656 46.6763C10.737 43.8653 10.0365 41.1176 9.48964 38.3438C8.39601 32.7951 7.2689 27.2513 6.17031 21.7038C6.08351 21.2636 5.8938 21.0789 5.4437 21.0342C2.4046 20.7329 0.0759848 18.1514 0.00158816 15.0267C-0.0678487 12.1364 2.14793 9.44942 5.01716 8.94476C7.65577 8.48102 10.2708 9.7222 11.512 12.026C12.8003 14.4191 12.437 17.2016 10.5572 19.1929C10.2993 19.4657 10.184 19.6591 10.4258 20.0286C14.2523 25.8712 18.0639 31.7225 21.8804 37.5714C21.9226 37.6408 21.9784 37.7015 22.1172 37.8764ZM41.934 73.3003C47.2385 73.314 51.9639 73.1491 56.6844 72.8267C59.9802 72.601 63.266 72.2972 66.5358 71.8248C67.4533 71.6921 67.8203 71.0263 67.4459 70.1769C67.2586 69.7529 66.9499 69.4156 66.6449 69.0796C66.2047 68.596 66.0633 68.0393 66.2047 67.4143C66.2927 67.025 66.3051 66.6356 66.2816 66.2438C66.2034 64.9952 65.4086 64.0814 64.1811 63.8854C62.6126 63.635 61.0329 63.4589 59.4544 63.2791C55.101 62.7844 50.7289 62.5637 46.3544 62.4731C40.7362 62.3566 35.1205 62.4732 29.5135 62.927C26.5711 63.165 23.6386 63.4713 20.7173 63.8929C20.0279 63.9921 19.5865 64.3207 19.222 64.8551C18.7235 65.5842 18.6107 66.4001 18.7892 67.2283C18.9628 68.0368 18.7867 68.6915 18.2213 69.2705C17.9312 69.5669 17.6758 69.8917 17.527 70.2873C17.2393 71.0536 17.62 71.7008 18.4197 71.8174C22.6913 72.4423 26.9914 72.7969 31.2978 73.0214C35.0288 73.2173 38.766 73.3574 41.934 73.3003ZM65.5872 52.6069C65.9046 52.6181 65.9183 52.6268 66.1154 52.3391C66.9028 51.1897 67.8786 50.2101 68.8755 49.2479C69.2909 48.8462 69.7112 48.4469 70.0188 47.9485C70.3697 47.3781 70.3325 47.259 69.6877 47.1536C67.3058 46.7631 64.9127 46.4543 62.5146 46.1753C57.3242 45.5702 52.114 45.2528 46.8938 45.1164C42.7648 45.0085 38.632 45.0594 34.5043 45.2292C32.9581 45.2925 31.4118 45.3731 29.8681 45.4934C26.5984 45.7475 23.3299 46.0315 20.0775 46.463C18.442 46.68 16.8127 46.9466 15.1785 47.176C14.7557 47.2355 14.7048 47.4227 14.8884 47.7625C15.1773 48.2994 15.6013 48.7222 16.0316 49.14C17.026 50.1047 18.0329 51.0607 18.8029 52.2201C19.0397 52.5759 19.2852 52.6553 19.677 52.5796C22.0515 52.1221 24.4595 51.9212 26.8662 51.7489C31.2531 51.4352 35.65 51.3273 40.0456 51.2653C45.4778 51.1872 50.905 51.3608 56.3298 51.6274C58.1004 51.7142 59.8661 51.9076 61.6343 52.0663C62.9709 52.1841 64.2977 52.375 65.5872 52.6069ZM21.6039 59.9238C21.5952 60.2413 21.6547 60.2723 22.1854 60.2028C27.0187 59.5642 31.8768 59.1848 36.7473 59.0757C41.97 58.9579 47.1951 58.9505 52.4177 59.2605C55.902 59.4675 59.3751 59.7676 62.8358 60.2041C63.4198 60.2772 63.478 60.1098 63.3689 59.62C63.111 58.4644 63.1036 57.3224 63.6665 56.2375C63.9021 55.7837 63.5983 55.7787 63.2846 55.7365C58.4476 55.0781 53.5771 54.8847 48.7091 54.7917C41.7071 54.659 34.7039 54.6851 27.7106 55.15C25.6932 55.284 23.6771 55.4526 21.6746 55.744C21.3249 55.7948 21.1625 55.8742 21.3559 56.24C21.5803 56.664 21.6994 57.1228 21.7787 57.594C21.9064 58.3652 21.7229 59.1129 21.6039 59.9238ZM42.5813 19.4347C42.5317 19.4396 42.4821 19.4434 42.4325 19.4483C42.1547 20.78 41.877 22.1117 41.6005 23.4447C40.394 29.2662 39.1875 35.0865 37.9823 40.908C37.8248 41.6694 37.8286 41.6632 38.5886 41.6706C41.1901 41.6954 43.7902 41.5218 46.3929 41.6545C47.1877 41.6954 47.1914 41.6619 47.0289 40.8783C45.882 35.3407 44.7338 29.8019 43.5856 24.2643C43.2521 22.6548 42.9161 21.0454 42.5813 19.4347ZM26.0553 21.6096C25.9958 24.4974 25.7875 27.3604 25.7912 30.2272C25.7924 31.0319 25.7527 31.8366 25.7354 32.6413C25.6722 35.7362 25.6126 38.8299 25.5444 41.9248C25.537 42.2807 25.6647 42.3749 26.0255 42.3464C28.4099 42.1604 30.7956 41.9843 33.1825 41.843C33.7405 41.8095 33.7182 41.621 33.5557 41.1994C32.2029 37.6966 30.8663 34.1863 29.5247 30.6797C28.369 27.6568 27.2122 24.6325 26.0553 21.6096ZM58.9709 21.6083C58.8667 21.8749 58.7601 22.1415 58.6571 22.4093C56.305 28.5582 53.9528 34.7071 51.6006 40.8572C51.2807 41.6954 51.3204 41.7735 52.207 41.7872C54.4153 41.8231 56.6174 41.9608 58.8159 42.1616C59.2895 42.205 59.4978 42.0736 59.4755 41.5603C59.4197 40.2199 59.3912 38.8795 59.3676 37.5379C59.3094 34.1937 59.3019 30.8496 59.1878 27.508C59.1209 25.5488 59.1221 23.5885 58.9709 21.6083ZM10.8052 26.8954C10.7792 26.914 10.7531 26.9314 10.7259 26.95C11.8121 32.3673 12.9044 37.7834 13.9708 43.2044C14.075 43.7339 14.313 43.8231 14.7792 43.7525C16.6726 43.466 18.5685 43.1957 20.4644 42.9291C21.2009 42.8262 21.2022 42.8399 20.7756 42.1839C19.3336 39.9706 17.8927 37.7573 16.4494 35.544C14.5697 32.6599 12.6875 29.7783 10.8052 26.8954ZM74.2594 27.0417C74.0845 27.1509 74.061 27.1583 74.0511 27.1744C70.7764 32.185 67.5029 37.1981 64.2233 42.2063C64.0038 42.5423 64.0683 42.644 64.4613 42.696C66.3622 42.9502 68.2618 43.2119 70.1403 43.6012C70.9314 43.7649 70.9326 43.7674 71.0913 42.9701C71.9617 38.6228 72.8309 34.2743 73.6989 29.9259C73.8837 29.0046 74.0585 28.0821 74.2594 27.0417ZM63.9244 8.33099C63.9145 6.85793 62.6956 5.65767 61.2213 5.66759C59.7681 5.67751 58.5319 6.93109 58.5493 8.37935C58.5666 9.83504 59.8153 11.0576 61.2697 11.044C62.739 11.0291 63.9343 9.80652 63.9244 8.33099ZM42.5118 8.82077C44.001 8.81953 45.2062 7.6205 45.1963 6.14869C45.1864 4.67935 43.9601 3.44809 42.5069 3.45057C41.0561 3.45181 39.8286 4.68679 39.8212 6.1524C39.815 7.61306 41.0326 8.82201 42.5118 8.82077ZM23.7589 5.66759C22.2871 5.67627 21.0893 6.89141 21.0943 8.36818C21.1005 9.83752 22.3317 11.0613 23.785 11.0427C25.253 11.0229 26.4806 9.78792 26.4682 8.34091C26.457 6.88521 25.2134 5.65891 23.7589 5.66759ZM6.13683 12.3211C4.6117 12.3211 3.47591 13.452 3.47467 14.9721C3.47467 16.4774 4.62906 17.6318 6.13435 17.6318C7.65205 17.6306 8.78659 16.4911 8.78535 14.9696C8.78411 13.4259 7.67932 12.3211 6.13683 12.3211ZM78.8521 12.3211C77.3133 12.3323 76.2209 13.4482 76.2321 14.9969C76.242 16.5171 77.3853 17.6393 78.9116 17.6306C80.4095 17.6219 81.5515 16.4563 81.5428 14.9424C81.5341 13.4309 80.3834 12.31 78.8521 12.3211Z" fill="black"/>
</svg>
