<svg width="80" height="80" viewBox="0 0 80 80" fill="none" xmlns="http://www.w3.org/2000/svg">
<path d="M40.8504 39.3475C39.4139 40.8148 37.9962 42.2017 36.4967 43.5042C33.4079 46.1869 30.1664 48.6713 26.7615 50.9386C24.5946 52.3818 22.8218 54.2123 21.2848 56.2973C20.4379 57.4457 19.6232 58.6263 18.5083 59.5482C16.9941 60.8025 15.2507 61.1629 13.3573 60.7971C12.4099 60.6135 11.898 59.8671 11.571 59.039C11.3848 58.5673 11.1583 58.4749 10.6772 58.5218C9.32514 58.6517 7.9677 58.7871 6.61027 58.5151C3.34866 57.8598 1.56376 55.7118 0.639147 52.6672C-0.62449 48.5051 0.0803601 44.611 1.92154 40.7397C4.96473 34.3411 8.37775 28.1476 11.8966 22.0076C12.4742 20.9999 13.1027 20.0204 13.64 18.9926C14.3113 17.7088 15.2989 16.6757 16.1914 15.5635C17.242 14.2529 18.1853 12.8754 18.7481 11.2674C18.8982 10.8386 18.8956 10.4741 18.6758 10.0587C18.0621 8.89421 17.7713 7.63995 17.774 6.32137C17.7753 5.42758 17.7793 4.53513 17.7927 3.64133C17.8222 1.60451 19.4396 0.360976 21.4456 0.816582C22.6999 1.10067 23.6459 1.87653 24.5276 2.74085C25.6975 3.8879 26.6435 5.21854 27.5373 6.58267C27.7745 6.94582 28.064 7.03024 28.4727 7.08518C29.8006 7.2634 30.6529 6.88552 31.3363 5.59508C32.4338 3.52609 34.0766 1.85777 36.0585 0.567333C37.5325 -0.39212 39.0159 -0.125455 40.0946 1.29764C40.8866 2.34152 41.1908 3.5797 41.4266 4.83664C41.5204 5.34048 41.6638 5.85504 41.6383 6.35621C41.5968 7.16826 42.0135 7.34649 42.705 7.43225C45.7026 7.80343 48.6332 8.47746 51.4955 9.44898C60.2271 12.4131 66.7302 18.0224 71.2085 26.0411C74.5331 31.9948 76.456 38.4309 77.7424 45.0827C78.6282 49.6643 79.1736 54.2887 79.5113 58.9439C79.9146 64.513 80.0473 70.0875 79.9856 75.6686C79.9762 76.4941 79.9361 77.3195 79.8891 78.1437C79.8315 79.1339 79.1026 79.8307 78.1029 79.875C77.8805 79.8843 77.6567 79.879 77.4329 79.879C59.5691 79.879 41.7053 79.879 23.8429 79.879C21.9897 79.879 21.3786 79.2773 21.4 77.4442C21.4684 71.6473 23.5133 66.657 27.4663 62.4172C29.3102 60.4393 31.3122 58.6236 33.2056 56.6967C36.4056 53.4404 38.8819 49.7634 40.0424 45.2864C40.4859 43.5752 40.7499 41.8359 40.9402 40.0845C40.967 39.8714 41.0192 39.6436 40.8504 39.3475ZM21.5099 5.05372C21.4054 6.32674 21.4027 7.53945 22.0928 8.54178C22.8406 9.62586 22.7883 10.6952 22.456 11.8516C21.7632 14.2637 20.4098 16.3032 18.8312 18.2033C18.046 19.1494 17.2741 20.0914 16.6738 21.1741C15.7867 22.7755 14.838 24.3419 13.9335 25.9339C10.759 31.5258 7.6126 37.1337 5.0143 43.0258C4.15535 44.9742 3.39556 46.9346 3.76139 49.1551C3.96105 50.3691 4.10041 51.5872 4.62034 52.7168C5.10275 53.762 5.84378 54.5366 7.01227 54.7778C8.09501 55.0002 9.18846 54.9118 10.2779 54.8019C10.692 54.7603 10.8394 54.4964 10.8313 54.1064C10.8219 53.6374 10.7951 53.1671 10.8246 52.7007C10.8956 51.5698 11.3526 50.6317 12.4621 50.2311C13.648 49.8023 14.8527 49.8063 15.8604 50.7122C16.773 51.5336 16.8038 52.5761 16.4487 53.6736C16.178 54.5044 15.7492 55.2669 15.4088 56.0669C15.2748 56.3818 14.9237 56.8374 15.177 57.029C15.5187 57.2876 15.9073 56.8762 16.1981 56.6243C17.0155 55.9168 17.6172 55.0216 18.2456 54.156C20.1686 51.5068 22.4707 49.2663 25.2258 47.4854C26.2938 46.7953 27.3189 46.0382 28.34 45.2784C32.344 42.3022 36.2032 39.1532 39.4246 35.3153C41.2337 33.1606 43.0052 30.9522 42.8792 27.8514C42.8417 26.9389 43.6417 26.2635 44.514 26.1938C45.4641 26.1175 46.2761 26.6548 46.4812 27.5486C46.5951 28.0444 46.6379 28.5523 46.5951 29.0749C46.453 30.7566 45.8969 32.2963 45.0795 33.7502C44.8624 34.1361 44.7726 34.5207 44.782 34.9589C44.8303 37.4594 44.7525 39.9505 44.4095 42.4375C43.6537 47.9115 41.5539 52.7677 37.9694 56.9861C35.8535 59.4772 33.4133 61.6467 31.1219 63.9622C28.0117 67.1059 25.7578 70.6851 25.2968 75.205C25.1977 76.1698 25.1628 76.1792 26.145 76.1792C42.5134 76.1792 58.8804 76.1792 75.2487 76.1792C76.2135 76.1792 76.2121 76.1778 76.2215 75.2358C76.2832 68.8948 76.1693 62.5619 75.5528 56.2437C75.1803 52.4233 74.6778 48.6231 73.91 44.8603C72.7147 38.9937 70.9794 33.3107 68.0675 28.0404C65.4304 23.2686 61.9543 19.2633 57.3259 16.3112C52.0985 12.9772 46.2748 11.5113 40.1992 10.8466C38.76 10.6885 38.098 10.0989 38.0511 8.64765C38.0109 7.37329 37.9265 6.10831 37.6317 4.86477C37.4642 4.15724 37.4025 4.13714 36.8679 4.62223C35.3577 5.99575 34.2294 7.64933 33.3972 9.4999C32.9778 10.4339 32.2917 10.8506 31.2947 10.8453C29.9105 10.8372 28.5263 10.8346 27.142 10.8466C26.2321 10.8547 25.5688 10.4861 25.1065 9.69018C24.5223 8.6865 23.8724 7.72169 23.1501 6.81182C22.6704 6.20747 22.2094 5.58035 21.5099 5.05372Z" fill="black"/>
<path d="M18.1693 24.3192C18.2081 23.0328 18.7013 21.8884 19.3056 20.7842C19.9528 19.601 20.7247 18.5102 21.8329 17.7022C22.8312 16.9746 23.9675 16.8687 24.8426 17.4128C25.7096 17.9528 26.1692 19.0596 25.9441 20.2335C25.4616 22.7594 24.2784 24.8874 22.2188 26.4646C21.3893 27.0997 20.4339 27.3128 19.453 26.7862C18.4815 26.2636 18.1291 25.3872 18.1693 24.3192Z" fill="black"/>
<path d="M8.94055 48.9152C7.27089 48.9045 5.92685 47.543 5.93221 45.8694C5.93757 44.2158 7.32181 42.8302 8.96869 42.8275C10.6182 42.8262 11.9985 44.2037 12.0092 45.8613C12.0186 47.5658 10.6518 48.9259 8.94055 48.9152Z" fill="black"/>
</svg>
