<?xml version="1.0" encoding="utf-8"?>
<!-- Generator: Adobe Illustrator 26.5.0, SVG Export Plug-In . SVG Version: 6.00 Build 0)  -->
<svg version="1.1" id="Layer_1" xmlns="http://www.w3.org/2000/svg" xmlns:xlink="http://www.w3.org/1999/xlink" x="0px" y="0px"
	 viewBox="0 0 1125 2436" style="enable-background:new 0 0 1125 2436;" xml:space="preserve">
<g>
	<path d="M577.53,995.54c0,26.94,0.02,53.88,0,80.82c-0.02,30.35-21.87,53-52.24,53.16c-54.57,0.3-109.14,0.28-163.71,0.01
		c-30.45-0.15-52.35-22.71-52.36-53.03c-0.01-54.22-0.02-108.43,0-162.65c0.01-30.5,22.33-52.91,52.96-52.96
		c54.07-0.08,108.15-0.08,162.22,0c30.88,0.04,53.11,22.43,53.13,53.31C577.55,941.32,577.53,968.43,577.53,995.54z M522.12,905.26
		c-22.22,0-42.84-0.03-63.47,0.02c-7.33,0.02-14.61,0.87-21.75,2.53c-43.14,10.04-72.71,47.4-73,92.43
		c-0.17,26.28,0.07,52.57-0.13,78.86c-0.04,4.74,1.25,6.26,6.13,6.24c43.61-0.18,87.21-0.09,130.82-0.14c1.35,0,2.96,0.69,4.25-0.93
		c-1.29-1.34-2.51-2.68-3.79-3.96c-34.83-34.82-69.64-69.68-104.58-104.4c-2.98-2.96-3.51-5.33-1.48-9.04
		c8.75-15.98,21.44-27.3,38.48-33.87c14.43-5.57,29.46-4.36,44.4-4.33c3.1,0.01,3.25,2.36,3.25,4.58c0.03,17.8,0.03,35.6,0,53.4
		c0,1.47,0.14,3.27-1.43,4c-1.85,0.86-3.1-0.63-4.28-1.8c-4.84-4.81-9.65-9.65-14.49-14.45c-1.16-1.15-2.15-2.71-4.02-2.72
		c-10.2-0.04-20.39-0.02-31.94-0.02c14.47,14.42,27.9,27.78,41.3,41.18c1.61,1.61,3.57,1.55,5.57,1.55c8.49,0,16.98,0.01,25.47,0
		c6.68-0.01,6.71-0.02,6.71-6.53c0.01-25.29,0.08-50.58-0.07-75.86c-0.03-4.31,1.21-7.66,4.09-10.78
		C512.65,916.38,516.87,911.3,522.12,905.26z"/>
	<path d="M417.91,1061.89c-8.48,0-16.95-0.12-25.43,0.05c-3.83,0.08-5.34-1.28-5.31-5.19c0.13-17.11,0.04-34.22,0.07-51.33
		c0-1.26-0.54-3,0.84-3.64c1.79-0.83,2.53,1.16,3.49,2.12c17.9,17.82,35.76,35.68,53.59,53.56c0.97,0.98,2.97,1.77,2.23,3.47
		c-0.7,1.63-2.66,0.91-4.06,0.92C434.86,1061.92,426.39,1061.89,417.91,1061.89z"/>
</g>
</svg>
