<svg width="55" height="72" viewBox="0 0 55 72" fill="none" xmlns="http://www.w3.org/2000/svg">
<path d="M27.4779 71.808C18.6614 71.808 9.8437 71.808 1.02722 71.808C0.00436548 71.808 0.0169628 71.8067 0.00436608 70.7612C-0.0699548 64.9906 0.799224 59.3863 3.02129 54.0339C5.22069 48.737 8.43412 44.1946 13.0937 40.7595C13.6164 40.374 14.1556 39.9986 14.7275 39.695C15.2024 39.4431 15.2011 39.2479 14.8774 38.8599C13.1604 36.8054 12.0015 34.456 11.5329 31.8284C10.4156 25.5602 12.3164 20.3225 17.107 16.1391C17.8628 15.479 17.8855 15.5067 17.524 14.5733C14.953 7.96001 19.4613 0.706802 26.4891 0.046732C32.0065 -0.470995 37.1472 3.36472 38.0768 8.98665C38.4044 10.9631 38.1801 12.8854 37.4016 14.7207C37.1522 15.3077 37.2278 15.6126 37.7266 16.0169C40.8846 18.5728 42.8762 21.8517 43.5526 25.8688C44.3563 30.643 43.2062 34.941 40.2284 38.7516C39.7535 39.3587 39.7459 39.3486 40.377 39.7391C45.0479 42.6326 48.3848 46.7177 50.8487 51.5574C53.0645 55.9096 54.2889 60.549 54.7701 65.4013C54.9527 67.2429 55.0069 69.0846 54.9993 70.9312C54.9955 71.7979 54.9943 71.8042 54.1201 71.8055C45.2381 71.8092 36.3586 71.808 27.4779 71.808ZM27.4389 68.2633C35.143 68.2633 42.8485 68.2633 50.5527 68.262C51.4181 68.262 51.4395 68.2507 51.4042 67.3752C51.3437 65.8648 51.1586 64.3671 50.8978 62.8781C49.9505 57.4766 47.9943 52.5022 44.5679 48.1739C42.1859 45.1658 39.3844 42.6817 35.6809 41.3918C35.0473 41.1714 34.4225 40.922 33.7826 40.7179C33.2271 40.5415 33.2863 40.34 33.6843 40.0289C34.3457 39.5124 34.9868 38.9695 35.6394 38.4404C40.1742 34.7634 41.5989 28.3605 39.0443 23.1152C37.7367 20.4308 35.6822 18.4947 33.0671 17.1015C32.1375 16.6064 32.1286 16.5472 32.7837 15.7045C34.0081 14.1312 34.7437 12.4268 34.6833 10.3748C34.546 5.71528 29.6672 1.97655 24.6651 4.08903C20.3154 5.92564 18.9549 11.1949 21.7363 15.0192C21.9958 15.3757 22.2301 15.7524 22.5135 16.0887C22.8385 16.4742 22.7352 16.6871 22.317 16.8962C21.8484 17.1305 21.4113 17.4252 20.9566 17.686C15.0285 21.0821 12.9236 28.9399 16.3247 34.8554C17.4307 36.7789 19.0255 38.2074 20.7223 39.5628C21.0548 39.8286 21.6733 40.0452 21.5851 40.4534C21.5045 40.8225 20.8596 40.8666 20.4464 40.9875C17.3942 41.8869 14.7804 43.5169 12.5659 45.7743C6.70207 51.7489 4.14114 59.1142 3.59948 67.3097C3.5365 68.2544 3.57429 68.2595 4.51023 68.2595C12.1552 68.2645 19.7964 68.2633 27.4389 68.2633Z" fill="black"/>
</svg>
